<?xml version="1.0" encoding="UTF-8"?><svg id="Dimensions" xmlns="http://www.w3.org/2000/svg" viewBox="0 0 3656.3 1263.1"><defs><style>.cls-1{fill:none;}.cls-2{fill:#fff;}</style></defs><rect class="cls-1" width="3656.3" height="1263.1"/><path class="cls-2" d="M326.7,610c0-144.2,114.9-223.8,284.8-223.8s284.8,79.6,284.8,223.8-114.9,223.8-284.8,223.8-284.8-79.6-284.8-223.8ZM726.3,610c0-59.8-43.1-95.7-114.9-95.7s-114.9,35.9-114.9,95.7,43.1,95.7,114.9,95.7,114.9-35.9,114.9-95.7Z"/><path class="cls-2" d="M1477.8,400.6v418.8h-147.2l-217.8-228v228h-161.5v-418.8h177.1l187.9,201.6v-201.6h161.5Z"/><path class="cls-2" d="M2006.7,523.2h-158v296.2h-167.5v-296.2h-158v-122.7h483.4v122.7Z"/><path class="cls-2" d="M2021,610c0-144.2,114.9-223.8,284.8-223.8s284.8,79.6,284.8,223.8-114.9,223.8-284.8,223.8-284.8-79.6-284.8-223.8ZM2420.7,610c0-59.8-43.1-95.7-114.9-95.7s-114.9,35.9-114.9,95.7,43.1,95.7,114.9,95.7,114.9-35.9,114.9-95.7Z"/><path class="cls-2" d="M3172.2,400.6v418.8h-167.5v-148.4h-191.5v148.4h-167.5v-418.8h167.5v142.4h191.5v-142.4h167.5Z"/></svg>