<?xml version="1.0" encoding="UTF-8"?><svg id="_레이어_2" xmlns="http://www.w3.org/2000/svg" viewBox="0 0 98.9 64.5"><defs><style>.cls-1{fill:#a9992f;}.cls-2{fill:#898989;}.cls-3{fill:#0092d0;}</style></defs><g id="Layer_1"><path class="cls-1" d="M31,22.8c-.3-.5-1.8-2.6-4.7-2.7-3.4,0-4.7,2.9-4.7,2.9l-4,10.8c-.3.9-.2,2.3.5,3,.6.6,1.4.9,2.1.9s.5,0,.8-.1l7.6-3c.8-.3,1.2-1.1.9-1.9-.1-.4-.5-1.1-1.3-1.1s-.4,0-.6.1l-6.9,2.6c0-.2.1-.4.2-.5l3.6-9.7s.6-1,1.8-1c.9,0,1.4.4,1.7.7,0,0,.1.2.2.4l4.9,12.8c.2.6.9,1,1.5,1h0c.2,0,1-.2,1.3-.7.2-.3.2-.6,0-.9l-5.1-13.6ZM34.6,37.6h0s0,0,0,0Z"/><path class="cls-1" d="M63.6,36.4l-5.1-13.6c-.2-.5-1.8-2.6-4.7-2.7-2.9,0-4.4,2.2-4.7,2.9l-4,10.8c-.3.9-.2,2.3.5,3,.6.6,1.4.9,2.1.9s.5,0,.8-.1l7.6-3c.8-.3,1.2-1.1.9-1.9-.1-.4-.5-1.1-1.3-1.1s-.4,0-.6.1l-6.9,2.6c0-.2.1-.4.2-.5l3.6-9.7s.6-1,1.8-1c.8,0,1.4.4,1.7.7,0,0,.2.2.2.4l4.9,12.8c.2.6.9,1,1.5,1h0c.2,0,1-.2,1.3-.7.2-.3.2-.6,0-.9ZM62.1,37.6h0s0,0,0,0Z"/><path class="cls-1" d="M15.9,36.7l-8.4-6.5c.2-.2.4-.4.7-.6,1.2-1.1,7.6-7.5,7.6-7.5,0,0,0,0,0,0,.2-.3.2-.5,0-.7-.2-.3-.6-.3-.7-.3h-.2c0,0-.1,0-.2,0h-1.3c-.7,0-1,.3-1.1.5l-6.7,6.5c-.4.3-1.2.5-2.3.5h0v-6.5c0-.5-.4-.9-1-.9H1c-.6,0-.9.4-1,.9v15.2c0,.5.4.9,1,.9h1.3c.6,0,.9-.4,1-.9v-5.6c.3,0,.7,0,1,0l8.3,6.1c.1.1.5.5,1.2.5h1.2s0,0,0,0h0c.4,0,.9,0,1.1-.5,0-.1.1-.4,0-.7,0,0,0-.1-.1-.2Z"/><path class="cls-1" d="M41.2,21.1h-1.3c-.6,0-.9.4-1,.9v15.2c0,.5.4.9,1,.9h1.3c.6,0,.9-.4,1-.9v-15.2c0-.5-.4-.9-1-.9Z"/><path class="cls-3" d="M62.9,15.6c-.4,0-.9-.1-1.3-.3-.7-.3-1.2-.9-1.4-1.5-.1-.5,0-1,.1-1.4.3-.6,1-1,1.8-1,.4,0,.9.1,1.3.3.7.3,1.1.9,1.3,1.5.2.5.1,1,0,1.4-.3.6-1,1-1.9,1ZM62.3,12c-.6,0-1.2.3-1.4.7-.2.3-.2.6,0,1,.2.5.6,1,1.1,1.2.3.2.7.3,1.1.3.7,0,1.2-.3,1.5-.7.2-.3.2-.6,0-1-.2-.5-.6-.9-1.1-1.2-.3-.2-.7-.3-1.1-.3Z"/><path class="cls-3" d="M63.2,17.6c-.8,0-1.7-.2-2.4-.6-1.3-.6-2.2-1.7-2.6-2.9-.3-.9-.2-1.8.3-2.6.6-1.1,2-1.8,3.5-1.8.8,0,1.7.2,2.4.6,1.2.6,2.2,1.7,2.6,2.8.3.9.2,1.8-.2,2.5-.6,1.2-2,1.9-3.6,1.9ZM61.9,10.2c-1.3,0-2.4.5-3,1.5-.4.6-.4,1.4-.2,2.1.3,1.1,1.2,2,2.3,2.6.7.3,1.5.5,2.2.5,1.4,0,2.5-.6,3-1.6.3-.6.4-1.4.1-2.1-.3-1-1.2-1.9-2.3-2.5-.7-.3-1.4-.5-2.2-.5Z"/><path class="cls-3" d="M63.5,19.6c-1.2,0-2.5-.3-3.7-.9-2-1-3.4-2.6-3.9-4.4-.4-1.4-.2-2.7.4-3.9,1-1.6,2.9-2.6,5.2-2.6,1.2,0,2.5.3,3.7.9,3.4,1.7,5,5.2,3.6,8-.9,1.8-3,2.9-5.4,2.9ZM61.6,8.5c-2,0-3.7.8-4.6,2.2-.6,1-.7,2.1-.4,3.3.5,1.6,1.8,3.1,3.6,4,1.1.5,2.2.8,3.4.8,2.1,0,3.9-.9,4.7-2.5,1.2-2.4-.3-5.5-3.3-7.1-1.1-.5-2.2-.8-3.4-.8Z"/><path class="cls-3" d="M68.8,6.9c-.6,0-1.3-.2-2-.7-.9-.5-1.5-1.2-1.7-1.8,0-.2,0-.4,0-.6.1-.2.3-.4.9-.4.6,0,1.3.2,2,.7,1.1.6,2,1.7,1.6,2.3-.1.2-.3.4-.9.4ZM66.1,4c-.2,0-.4,0-.5.1,0,0,0,.1,0,.2,0,.4.6,1,1.4,1.5.6.4,1.3.6,1.7.6.2,0,.4,0,.5-.2.1-.3-.3-1-1.4-1.7-.6-.4-1.3-.6-1.7-.6Z"/><path class="cls-3" d="M70.1,8.5c-1,0-2.5-.5-3.9-1.3-1.8-1-3-2.4-3.3-3.4,0-.4,0-.7.1-.9.2-.3.6-.6,1.4-.6,1.1,0,2.5.5,3.9,1.3,2,1.2,3.8,3.1,3.2,4.2-.2.3-.6.7-1.5.6ZM64.6,2.9c-.5,0-.8.1-.9.3,0,.1,0,.3,0,.5.2.7,1.1,1.9,3,3,1.3.8,2.6,1.2,3.6,1.2.5,0,.8-.1,1-.3.3-.6-.8-2.2-3-3.4-1.3-.8-2.6-1.2-3.6-1.2Z"/><path class="cls-3" d="M71.6,10.1c-1.6,0-3.8-.8-5.9-2-2.7-1.6-4.7-3.6-5-5.1,0-.5,0-.9.2-1.2.4-.5,1-.7,1.9-.7,1.6,0,3.8.8,5.9,2,3,1.7,5.7,4.5,4.9,6.1-.2.4-.7.9-2.1.9ZM62.9,1.7c-.7,0-1.2.1-1.4.4-.1.2-.2.4,0,.7.3,1.3,2.2,3.2,4.6,4.6,2,1.2,4.1,1.9,5.6,1.9.7,0,1.2-.2,1.4-.5.5-.9-1.3-3.3-4.6-5.2-2-1.2-4.1-1.9-5.6-1.9Z"/><path class="cls-3" d="M52.3,3c-.4,0-.8,0-.9-.4,0-.6,1.6-1,2.2-1.1.6-.1,1.1-.2,1.5-.2.5,0,.8.1.9.3,0,0,0,.2,0,.3-.3.5-1.7.8-2,.9-.6.1-1.2.2-1.6.2ZM52,2.5c0,0,.2,0,.3,0,.4,0,.9,0,1.5-.2.8-.2,1.4-.4,1.6-.6,0,0-.2,0-.3,0-.4,0-.9,0-1.4.2-.9.2-1.4.4-1.7.6Z"/><path class="cls-3" d="M50.9,3.9c-.4,0-1.6,0-1.7-.7,0-1.2,4-2,4.2-2.1,1-.2,2-.3,2.8-.3,1,0,1.5.2,1.6.5,0,.1,0,.3,0,.5-.4.7-2.3,1.4-3.9,1.7-1.1.2-2.2.4-3.1.4ZM56.3,1.3c-.7,0-1.7,0-2.7.3-2.3.5-3.7,1.2-3.7,1.5,0,0,.3.1,1.1.1.8,0,1.9-.1,3-.4,2.3-.5,3.4-1.2,3.5-1.4,0,0-.3-.1-1.1-.1Z"/><path class="cls-3" d="M49.8,5.1c-1.3,0-2.2-.2-2.6-.7-.2-.2-.3-.4-.2-.6,0-1.7,5.3-2.8,6.4-3.1,1.6-.3,3.2-.4,4.3-.4,1.4,0,2.1.3,2.3.7,0,.2.1.4,0,.8-.5,1-2.7,2-5.7,2.7-1.6.4-3.2.5-4.4.5ZM57.7,1.1c-1.1,0-2.6.1-4.2.4-3.7.7-5.8,1.9-5.8,2.4,0,0,0,0,0,.1.2.2.8.4,2.1.4,1.2,0,2.7-.2,4.3-.5,3-.7,4.9-1.7,5.2-2.3,0,0,0-.1,0-.1,0,0-.2-.3-1.7-.3Z"/><path class="cls-3" d="M42.9,7.1c-.5,0-.7-.2-.7-.4-.2-.6.6-1.4,1.6-1.8.6-.3,1.2-.5,1.6-.5.5,0,.6.2.7.4.3.6-.6,1.4-1.6,1.9-.6.3-1.2.5-1.6.5ZM45.4,4.9c-.4,0-.9.1-1.4.4-1,.5-1.4,1.1-1.4,1.3,0,0,.1,0,.3,0,.4,0,.9-.1,1.4-.4,1-.5,1.4-1.1,1.4-1.3,0,0-.1,0-.3,0Z"/><path class="cls-3" d="M41.4,8.1c-.7,0-.9-.3-1-.5-.3-.9,1.5-2.3,3.2-3.2,1.3-.7,2.5-1.1,3.3-1,.6,0,.8.2.9.4.4.9-1.3,2.3-3.2,3.2-1.3.7-2.5,1.1-3.3,1ZM46.9,4c-.7,0-1.9.4-3.1,1-2,1.1-3,2.2-2.9,2.5,0,0,.1.1.4.1.7,0,1.9-.4,3.1-1,2.2-1.1,3-2.2,2.9-2.5,0,0-.1,0-.4-.1Z"/><path class="cls-3" d="M40.3,9.7c-1.1,0-1.5-.5-1.6-.9-.4-1.4,2.1-3.5,4.7-4.9,1.8-.9,3.7-1.5,4.9-1.5,1,0,1.4.4,1.5.7.1.3.2.6,0,.9-.4,1.2-2.3,2.8-4.7,4.1-1.8.9-3.7,1.5-4.9,1.5ZM48.3,3.2c-1.1,0-2.9.5-4.6,1.4-3,1.5-4.6,3.4-4.4,4,0,.3.7.4.9.4,1.1,0,2.8-.5,4.6-1.4,2.6-1.3,4.1-2.8,4.3-3.7,0-.2,0-.3,0-.4,0-.2-.4-.3-.9-.3Z"/><path class="cls-3" d="M78.8,16.8c-.6,0-1.3-.9-1.7-1.7-.4-.8-.5-1.6-.3-2,0-.2.2-.3.3-.4,0,0,.2,0,.2,0,.6,0,1.2.8,1.6,1.6.4.8.5,1.7.4,2.1,0,.2-.2.3-.4.4,0,0-.1,0-.2,0ZM77.4,13.1c0,0-.1,0-.1.1,0,.3,0,.9.3,1.7.5,1,1.1,1.5,1.3,1.4,0,0,0,0,0-.1.1-.3,0-.9-.3-1.7-.4-.9-1-1.4-1.2-1.4Z"/><path class="cls-3" d="M79.6,18.9c-1.1,0-2.5-2.1-3.4-4.1-.6-1.5-.8-2.8-.5-3.5.1-.3.4-.4.5-.4.9-.2,2.2,1.4,3,3,.8,1.5,1.4,3.5,1,4.4-.1.3-.4.4-.5.5,0,0-.1,0-.2,0ZM76.4,11.5c0,0-.1,0-.2.1-.2.4-.1,1.4.5,3,.9,2.1,2.2,3.7,2.8,3.7,0,0,0,0,0,0,0,0,0,0,.1-.1.2-.5,0-2.2-1-3.9-1-1.8-2-2.7-2.4-2.7Z"/><path class="cls-3" d="M80.1,21.1c-1.6,0-3.7-3.1-5-5.9-1-2.4-1.4-4.6-1-5.6.2-.4.4-.6.6-.7,1.2-.5,3.2,1.5,4.9,4.7,1.4,2.8,2.1,5.6,1.5,6.8-.2.4-.5.6-.7.7,0,0-.2,0-.3,0ZM75.1,9.5c0,0,0,0-.1,0,0,0-.2.1-.2.3-.3.7-.1,2.6,1,5.1,1.4,3.3,3.4,5.5,4.3,5.5,0,0,0,0,.1,0,0,0,.2,0,.3-.3.4-.8,0-3.3-1.5-6.2-1.4-2.7-3.1-4.4-3.8-4.4Z"/><path class="cls-3" d="M80.4,26.9c-.7,0-1.2-.8-1.4-1.9,0-.6,0-1.1.2-1.5.2-.5.5-.8.9-.8.7,0,1.4.8,1.5,2,.1,1.2-.3,2.1-1,2.2,0,0,0,0-.1,0ZM80.2,23.1c-.2,0-.4.2-.5.5-.1.3-.2.8-.1,1.3.1,1,.6,1.5.9,1.5.4,0,.7-.8.6-1.7,0-.9-.5-1.6-.9-1.6Z"/><path class="cls-3" d="M80.5,28.7c-1.1,0-2.1-1.5-2.4-3.6-.2-1.6,0-3.1.7-3.9.3-.3.6-.5,1-.6,1.2-.1,2.3,1.6,2.5,4,.2,2.2-.5,3.9-1.6,4.1,0,0-.1,0-.2,0ZM79.8,21.2h0c-.2,0-.4.1-.6.4-.5.7-.7,2-.5,3.4.3,2,1.2,3.2,1.9,3.1.7,0,1.3-1.5,1.1-3.4-.2-2-1.1-3.4-1.9-3.4Z"/><path class="cls-3" d="M80.3,30.5c-1.6,0-3-2.2-3.5-5.3-.4-2.4,0-4.8,1-6,.4-.5.9-.8,1.4-.8,0,0,0,0,.1,0,1.7,0,3.3,2.7,3.6,6.1.3,3.1-.7,5.7-2.3,6,0,0-.2,0-.3,0ZM79.3,19.1s0,0,0,0c-.3,0-.7.2-.9.6-.8,1-1.1,3.2-.8,5.4.5,3.1,1.9,4.8,3,4.6,1-.2,2-2.2,1.7-5.2-.2-2.9-1.6-5.4-2.9-5.4Z"/><path class="cls-3" d="M72.6,15c-.4,0-.9-.2-1.4-.5-1-.8-1.6-2-1.2-2.8.3-.7,1.5-.7,2.5,0,.9.7,1.5,1.9,1.2,2.6-.2.4-.5.7-1.1.7ZM71,11.6c-.2,0-.5,0-.6.3-.3.5.2,1.6,1.1,2.2.4.3.8.4,1.1.4.2,0,.5,0,.6-.4.2-.5-.3-1.5-1-2.1-.4-.3-.8-.5-1.2-.5Z"/><path class="cls-3" d="M73.2,16.8c-.8,0-1.7-.4-2.6-1-2.1-1.5-3.2-4-2.4-5.4.3-.6,1-1,1.8-1,.9,0,2,.4,2.9,1.2,1.7,1.4,2.7,3.5,2.3,4.8-.3.8-1,1.3-2,1.3ZM70,10c-.4,0-1,.1-1.3.7-.6,1.2.4,3.3,2.2,4.6.8.5,1.6.9,2.3.9.7,0,1.2-.3,1.4-.9.4-1.1-.5-3-2.1-4.2-.8-.7-1.8-1.1-2.6-1.1Z"/><path class="cls-3" d="M73.8,18.6c-1.2,0-2.5-.5-3.8-1.4-3.3-2.3-5.1-6.2-3.7-8.3.5-.9,1.4-1.3,2.6-1.3,1.4,0,3.1.7,4.5,1.9,2.5,2,3.9,5,3.3,7.1-.4,1.3-1.5,2.1-3,2ZM68.9,8.4c-.6,0-1.5.2-2,1-1.1,1.8.6,5.4,3.5,7.4,1.2.8,2.4,1.2,3.4,1.2,1.2,0,2-.5,2.3-1.5.5-1.7-.9-4.5-3.1-6.3-1.3-1.1-2.8-1.7-4.1-1.7Z"/><path class="cls-3" d="M74.8,24.3c-.4,0-.9-.3-1.3-.7-.8-.9-1.2-2.2-.8-3,.2-.4.5-.6.9-.6.4,0,.9.3,1.3.7.8.8,1.2,2.1.8,2.9-.2.4-.5.7-1,.7ZM73.6,20.4c-.2,0-.4.1-.5.3-.3.6,0,1.8.7,2.5.6.6,1.3.7,1.5.2.2-.6,0-1.7-.7-2.4-.3-.4-.7-.6-1-.6Z"/><path class="cls-3" d="M75.3,26.3c-.8,0-1.7-.5-2.5-1.3-1.7-1.7-2.4-4.4-1.6-5.9.3-.6.9-1,1.6-1,.8,0,1.8.5,2.6,1.4,1.4,1.6,2.2,4,1.7,5.5-.3.9-.9,1.4-1.8,1.3ZM72.9,18.7c-.5,0-.9.2-1.1.7-.7,1.3,0,3.7,1.5,5.2.7.7,1.4,1.1,2.1,1.1.6,0,1-.3,1.2-.9.5-1.3-.2-3.5-1.5-4.9-.7-.8-1.5-1.2-2.1-1.2Z"/><path class="cls-3" d="M75.8,28.5c-1.2,0-2.5-.7-3.7-1.9-2.6-2.7-3.7-6.8-2.3-9.1.5-.9,1.3-1.3,2.3-1.3,1.2,0,2.7.8,3.9,2.1,2.1,2.3,3.2,5.8,2.5,8.1-.4,1.4-1.4,2.2-2.7,2.1ZM72.1,16.9c-.7,0-1.3.3-1.7,1-1.2,2-.1,5.8,2.2,8.2,1.1,1.1,2.2,1.7,3.2,1.7,1,0,1.7-.6,2-1.6.6-2-.4-5.3-2.4-7.4-1.1-1.2-2.3-1.9-3.4-1.9Z"/><path class="cls-3" d="M58.4,7.3c-.4,0-.7,0-1-.2-.6-.2-1.1-.6-1.2-1.1,0-.4,0-.8.3-1.1.4-.4,1.1-.7,1.9-.7.3,0,.6,0,.9.1.6.2,1.1.6,1.3,1.1.1.3,0,.7-.2,1-.4.5-1.2.9-2,.9ZM58.4,4.7c-.7,0-1.3.2-1.6.6-.2.2-.2.4-.2.6,0,.3.4.6.9.8.3,0,.6.2.9.2.7,0,1.4-.3,1.7-.7.1-.2.2-.4,0-.6-.1-.3-.5-.6-1-.8-.3,0-.5-.1-.8-.1Z"/><path class="cls-3" d="M58.4,8.9c-.7,0-1.5-.1-2.1-.4-1.2-.5-2-1.2-2.2-2.2-.1-.7,0-1.4.7-2,.8-.8,2.2-1.2,3.6-1.2.6,0,1.2,0,1.7.3,1.2.4,2.1,1.1,2.4,1.9.2.6.2,1.2-.2,1.8-.7,1.1-2.2,1.8-4,1.8ZM58.3,3.7c-1.3,0-2.5.4-3.2,1.1-.5.4-.6,1-.5,1.5.1.7.8,1.3,1.8,1.7.6.2,1.3.3,1.9.4,1.6,0,3-.6,3.5-1.5.2-.4.3-.8.1-1.3-.3-.7-1-1.3-2.1-1.6-.5-.1-1-.2-1.6-.2Z"/><path class="cls-3" d="M58.3,10.8c-1.2,0-2.3-.2-3.4-.7-1.8-.7-3-1.9-3.2-3.3-.2-1.1.3-2.3,1.3-3.2,1.2-1.1,3.2-1.7,5.3-1.7.9,0,1.7.1,2.5.4,1.8.5,3.2,1.6,3.7,2.8.4.8.4,1.7,0,2.6-.9,1.8-3.4,3-6.2,3ZM58.3,2.7c-1.9,0-3.7.5-4.8,1.5-.8.7-1.2,1.6-1.1,2.5.2,1.1,1.2,2.1,2.8,2.7,1,.4,2.1.6,3.1.6,2.6,0,4.8-1,5.5-2.6.3-.7.3-1.3,0-2-.5-1.1-1.7-2-3.3-2.4-.7-.2-1.5-.3-2.3-.3Z"/><path class="cls-3" d="M47.9,10.8c-.1,0-.2,0-.3,0-.6,0-1-.3-1.2-.8-.2-.4-.1-.9.1-1.4.5-.9,1.8-1.5,2.8-1.4.6,0,1,.3,1.2.7.2.4.2.9,0,1.3-.5.9-1.6,1.5-2.7,1.5ZM49.2,7.7c-.9,0-1.8.5-2.2,1.2-.2.3-.2.7-.1.9.1.3.4.4.8.5.9.1,2.1-.5,2.5-1.2.2-.3.2-.6,0-.9-.1-.3-.5-.4-.9-.5,0,0-.1,0-.2,0Z"/><path class="cls-3" d="M47.4,12.5c-.2,0-.4,0-.7,0-1-.2-1.8-.7-2.1-1.4-.3-.8-.2-1.7.3-2.6,1-1.7,3.3-2.8,5.4-2.7,1.1,0,2,.6,2.4,1.3.4.7.3,1.6-.1,2.4-.9,1.7-3.1,3-5.2,2.9ZM49.9,6.4c-1.7,0-3.7,1-4.5,2.4-.4.7-.5,1.4-.3,2,.3.6.9,1,1.7,1.1.2,0,.4,0,.6,0,1.8,0,3.9-1.1,4.7-2.6.4-.7.4-1.4.1-1.9-.3-.6-1-1-1.9-1,0,0-.2,0-.3,0Z"/><path class="cls-3" d="M46.8,14.4c-.4,0-.8,0-1.1-.1-1.5-.3-2.6-1-3.1-2.2-.5-1.1-.3-2.5.5-3.9,1.5-2.4,4.9-4.1,7.9-3.9,1.7.1,3,.8,3.7,2,.6,1,.6,2.3,0,3.6-1.3,2.6-4.7,4.6-7.8,4.5ZM50.7,5c-2.6,0-5.6,1.5-6.9,3.6-.7,1.1-.9,2.3-.5,3.2.4.9,1.3,1.5,2.6,1.8.3,0,.7,0,1,0,2.9,0,6-1.8,7.2-4.1.5-1.1.6-2.1,0-2.9-.5-.9-1.7-1.5-3.1-1.6-.1,0-.2,0-.3,0Z"/><path class="cls-3" d="M82.5,24.8c-1.1-9.8-6.6-17.5-14.5-21.2-14.4-6.8-26.9,2.6-27,2.7-1.3.7-2,2.5-2.2,2.2-.2-.3.1-1.9,1.7-3.2.1-.1,12.9-9.9,27.9-2.8,8.3,3.9,13.8,12,14.8,21.7.3,2.7-.4,4.5-1.7,5.7-1,.9,1.4-1.4,1-5.1Z"/><path class="cls-2" d="M64.5,43.9c-.2-.2-.4-.3-.7-.4-.5-.2-1.3-.2-1.8,0-.3.1-.5.3-.7.4-.2.2-.3.4-.5.7-.1.3-.2.6-.2.9s0,.7.2,1c.1.3.3.5.5.7.2.2.4.3.7.4.3,0,.6.1.9.1s.6,0,.9-.1c.3-.1.5-.2.7-.4.2-.2.3-.4.5-.7.1-.3.2-.6.2-.9s0-.7-.2-.9c-.1-.3-.3-.5-.5-.7ZM64,45.5c0,.2,0,.5,0,.6,0,.2-.1.3-.2.4,0,.1-.2.2-.4.3-.3.1-.7.1-.9,0-.1,0-.3-.1-.4-.3-.1-.1-.2-.3-.2-.4,0-.2,0-.4,0-.6s0-.5,0-.6c0-.2.1-.3.2-.4,0-.1.2-.2.4-.3.1,0,.3,0,.5,0s.3,0,.5,0c.1,0,.3.1.4.3.1.1.2.3.2.4,0,.2,0,.4,0,.6Z"/><path class="cls-2" d="M59.1,47.6h0c.4,0,.6-.2.6-.4v-3.1h.4c.3,0,.4-.2.4-.3v-.5h-.8v-.2c0-.2,0-.3.1-.4,0,0,.2-.1.3-.1s.2,0,.2,0c0,0,.2,0,.2,0h.1s0-.9,0-.9h0c0,0-.2,0-.3,0-.1,0-.2,0-.4,0-.9,0-1.4.5-1.4,1.4v.2h-.7v.8h.7v3.5h.5Z"/><path class="cls-2" d="M68.2,43.3c-.1,0-.3,0-.4,0-.4,0-.7.2-1,.5v-.2c0,0,0-.1-.2-.2h-.8v4.3h.5,0c.4,0,.5-.2.6-.4v-2.5c.1-.2.3-.3.4-.4.1,0,.3-.1.5-.1s.3,0,.4,0h.2c0,0,0-1,0-1h-.1Z"/><path class="cls-2" d="M9.4,43.9c-.2-.2-.4-.3-.7-.4-.5-.2-1.3-.2-1.8,0-.3.1-.5.3-.7.4-.2.2-.3.4-.5.7-.1.3-.2.6-.2.9s0,.7.2,1c.1.3.3.5.5.7.2.2.4.3.7.4.3,0,.6.1.9.1s.6,0,.9-.1c.3-.1.5-.2.7-.4.2-.2.4-.4.5-.7.1-.3.2-.6.2-.9s0-.7-.2-.9c-.1-.3-.3-.5-.5-.7ZM8.9,45.5c0,.2,0,.5,0,.6,0,.2-.1.3-.2.4,0,.1-.2.2-.4.3-.3.1-.7.1-.9,0-.1,0-.3-.1-.4-.3,0-.1-.2-.3-.2-.4,0-.2,0-.4,0-.6s0-.5,0-.6c0-.2.1-.3.2-.4,0-.1.2-.2.4-.3.1,0,.3,0,.5,0s.3,0,.5,0c.1,0,.3.1.4.3,0,.1.2.3.2.4,0,.2,0,.4,0,.6Z"/><path class="cls-2" d="M2.8,44.2l2.8-2.4h-1.5l-2.9,2.6v-2.2c0-.2-.2-.4-.5-.4H.1v5.8h.5,0c.4,0,.5-.2.6-.4v-1.6l.8-.7,2.1,2.7h0c0,0,1.4,0,1.4,0l-2.8-3.4Z"/><path class="cls-2" d="M21.8,47.6h0c.5,0,.6-.3.6-.5v-2.3c0-.3,0-.6-.1-.8,0-.2-.2-.4-.4-.5-.2-.1-.4-.2-.6-.3-.2,0-.5,0-.8,0-1.3,0-2,.5-2.1,1.4h0c0,.1.7.1.7.1.1,0,.3,0,.4-.2,0-.2.1-.5,1-.5s.4,0,.6,0c.1,0,.2,0,.3.2,0,0,0,.2,0,.3,0,0,0,.2,0,.3h-.3c-1.9,0-2.8.5-2.8,1.5s0,.4.1.5c0,.2.2.3.4.4.2.1.3.2.5.3.2,0,.4,0,.6,0,.6,0,1-.1,1.4-.4v.3h.5ZM21.2,46.6c0,0-.2.1-.3.2-.1,0-.2,0-.3.1-.1,0-.2,0-.4,0-.3,0-.5,0-.6-.1-.1,0-.2-.2-.2-.4,0-.5.5-.7,1.6-.7h.4v.7c0,0-.1.1-.2.2Z"/><path class="cls-2" d="M13.1,43.3c-.1,0-.3,0-.4,0-.4,0-.7.2-1,.5v-.2c0,0,0-.1-.2-.2h-.8v4.3h.5,0c.4,0,.5-.2.6-.4v-2.5c.1-.2.3-.3.4-.4.2,0,.3-.1.5-.1s.3,0,.4,0h.2c0,0,0-1,0-1h-.1Z"/><path class="cls-2" d="M16.7,46.4s0,0,0,.1c0,0-.1.1-.2.2,0,0-.2,0-.3.1-.3,0-.6,0-.8,0-.1,0-.3-.1-.4-.2-.1-.1-.2-.2-.3-.4,0-.1,0-.3-.1-.4h2.7c.6,0,.7-.3.7-.5,0-.3,0-.5-.1-.8-.1-.3-.3-.5-.5-.7-.2-.2-.4-.3-.7-.4-.5-.2-1.3-.2-1.8,0-.3.1-.5.3-.7.4-.2.2-.4.4-.5.7-.1.3-.2.6-.2.9s0,.7.2.9c.1.3.3.5.5.7.2.2.5.3.7.4.3,0,.6.1.9.1s.5,0,.7,0c.2,0,.4-.2.6-.3.2-.1.3-.3.5-.4.1-.2.2-.4.2-.6v-.2s-.9,0-.9,0c0,0-.2.1-.2.2ZM14.7,44.7c0-.1.1-.2.2-.3,0,0,.2-.1.3-.2.1,0,.3,0,.4,0,.3,0,.5,0,.7.3.2.1.3.4.4.6h-2.2c0-.1,0-.2.1-.3Z"/><path class="cls-2" d="M26.6,47.1h0c0,0,0-.1,0-.1h0s.4-1.1.4-1.1h2.4l.5,1.2c0,.2.3.4.8.5h.7l-2.6-5.8h0c0,0-1.1,0-1.1,0l-2.5,5.8h.6c.5,0,.7-.3.8-.5ZM28.3,43l.9,2.1h-1.7l.8-2.1Z"/><path class="cls-2" d="M44.7,47.6h0c.5,0,.6-.3.6-.5v-2.3c0-1.1-.6-1.6-1.6-1.6s-.5,0-.8.2c-.2,0-.3.2-.5.3h0c0-.1,0-.1,0-.1,0,0,0-.2-.2-.2h-.8v4.3h.5,0c.7,0,.6-.6.6-.6h0s0-2.4,0-2.4c.4-.4.7-.6,1.1-.6s.2,0,.3,0c0,0,.2,0,.2.1,0,0,0,.1.1.2,0,.1,0,.2,0,.4v2.7h.5Z"/><path class="cls-2" d="M34.9,43.4c0,0,0,0-.1,0h0c-.1,0-.3,0-.4,0-.5-.2-1-.2-1.5,0-.2.1-.5.3-.6.5-.2.2-.3.4-.4.7,0,.3-.2.6-.2.9s0,.6.1.9c0,.3.2.5.4.7.2.2.4.3.6.5.2.1.5.2.8.2s.8-.1,1.2-.4c0,.2,0,.4,0,.5,0,.2-.1.3-.2.4,0,0-.2.1-.3.2-.1,0-.3,0-.5,0-.6,0-.8-.2-.8-.4h0s0,0,0,0c0,0,0,0,0,0,0,0,0-.2-.4-.2h0s-.7,0-.7,0h0c0,.3,0,.5.1.7,0,.2.2.3.4.4.2.1.4.2.6.3.2,0,.5,0,.8,0,1.4,0,2.1-.7,2.1-2.1v-3.8h-.9ZM34.7,46.3c-.2.2-.3.4-.5.5-.2.1-.4.2-.6.2-.3,0-.5-.1-.7-.3-.2-.2-.3-.6-.3-1.1s0-.9.3-1.1c.2-.2.4-.3.7-.3s.7.1,1.1.4v1.8Z"/><path class="cls-2" d="M48.9,46.5h0s0,0,0,0c0,0-.1.1-.2.2,0,0-.2,0-.3.1-.3,0-.6,0-.8,0-.1,0-.3-.1-.4-.3-.1-.1-.2-.3-.2-.4,0-.2,0-.4,0-.6s0-.5,0-.6c0-.2.1-.3.2-.4,0-.1.2-.2.4-.3.2,0,.6-.1.8,0,.1,0,.2,0,.3.1,0,0,.1.1.2.2,0,0,0,0,0,0h0s0,.3.5.3h.7,0c0-.4-.1-.6-.2-.8-.1-.2-.2-.3-.4-.4-.2-.1-.4-.2-.6-.3-.2,0-.5,0-.7,0s-.6,0-.9.2c-.3.1-.5.3-.7.4-.2.2-.4.4-.5.7-.1.3-.2.6-.2.9s0,.7.2,1c.1.3.3.5.5.7.2.2.4.3.7.4.3,0,.6.1.9.1s.5,0,.7,0c.2,0,.4-.1.6-.3.2-.1.3-.3.4-.4.1-.2.2-.4.2-.6h0c0-.1-.7-.1-.7-.1-.4,0-.5.3-.5.3Z"/><path class="cls-2" d="M53.9,43.4c-.2,0-.4.1-.6.4l-.9,2.5-.9-2.5h0c-.1-.3-.4-.4-.6-.5h-.7l1.7,4.2c-.2.6-.5.8-.8.8s-.1,0-.2,0c0,0,0,0,0,0,0,0-.3,0-.3.2v.7h0c0,0,.2,0,.3,0,0,0,.2,0,.3,0,.2,0,.4,0,.6-.1.2,0,.3-.2.4-.4.1-.1.2-.3.3-.5,0-.2.2-.4.3-.7l1.8-4.2h-.7Z"/><path class="cls-2" d="M39.6,46.4s0,0,0,.1c0,0-.1.1-.2.2,0,0-.2,0-.3.1-.3,0-.6,0-.8,0-.1,0-.3-.1-.4-.2-.1-.1-.2-.2-.3-.4,0-.1,0-.3-.1-.4h2.7c.6,0,.7-.3.7-.5,0-.3,0-.5-.1-.8-.1-.3-.3-.5-.5-.7-.2-.2-.4-.3-.7-.4-.5-.2-1.3-.2-1.8,0-.3.1-.5.3-.7.4-.2.2-.4.4-.5.7-.1.3-.2.6-.2.9s0,.7.2.9c.1.3.3.5.5.7.2.2.5.3.7.4.3,0,.6.1.9.1s.5,0,.7,0c.2,0,.4-.2.6-.3.2-.1.3-.3.5-.4.1-.2.2-.4.2-.6v-.2s-.9,0-.9,0c0,0-.2.1-.2.2ZM37.5,44.7c0-.1.1-.2.2-.3,0,0,.2-.1.3-.2.1,0,.3,0,.4,0,.3,0,.5,0,.7.3.2.1.3.4.4.6h-2.2c0-.1,0-.2.1-.3Z"/><path class="cls-2" d="M.6,56.4c.4,0,.6-.3.6-.4v-5.4H.1v5.8h.5,0Z"/><path class="cls-2" d="M7.4,56.4h0c.4,0,.6-.2.6-.4v-3.1h.4c.3,0,.4-.2.4-.3v-.5h-.8v-.2c0-.2,0-.3.1-.4,0,0,.2-.1.3-.1s.2,0,.2,0c0,0,.2,0,.2,0h.1s0-.8,0-.8h0c0,0-.2,0-.3,0-.1,0-.2,0-.4,0-.9,0-1.4.5-1.4,1.4v.2h-.7v.8h.7v3.5h.5Z"/><path class="cls-2" d="M23.4,55.7c-.1,0-.2,0-.3,0,0,0,0,0,0,0,0,0,0,0,0-.1,0,0,0-.2,0-.3v-2.2h.3c.3,0,.4-.2.4-.4v-.4h-.7v-1h-1.1v1h-.6v.8h.6v2.2c0,.2,0,.4,0,.6,0,.2,0,.3.2.4,0,.1.2.2.4.3.2,0,.4,0,.6,0s.2,0,.3,0c.1,0,.2,0,.3,0h0v-.8h-.1c0,0-.1,0-.2,0Z"/><path class="cls-2" d="M38.2,55.7c-.1,0-.2,0-.3,0,0,0,0,0,0,0,0,0,0,0,0-.1,0,0,0-.2,0-.3v-2.2h.3c.3,0,.4-.2.4-.4v-.4h-.7v-1h-1.1v1h-.6v.8h.6v2.2c0,.2,0,.4,0,.6,0,.2,0,.3.2.4,0,.1.2.2.4.3.2,0,.4,0,.6,0s.2,0,.3,0c.1,0,.2,0,.3,0h0v-.8h-.1c0,0-.1,0-.2,0Z"/><path class="cls-2" d="M30.5,56.4h0c.5,0,.6-.3.6-.5v-3.8h-.7c-.3,0-.3.3-.4.4v2.6c-.3.4-.7.6-1.1.6s-.2,0-.3,0c0,0-.2,0-.2-.1,0,0,0-.1-.1-.2,0-.1,0-.2,0-.4v-2.3c0-.1,0-.3-.4-.4h-.7v2.8c0,1.1.6,1.6,1.7,1.6s.8-.1,1.2-.4v.4h.5Z"/><path class="cls-2" d="M42.3,56.4h0c.5,0,.6-.3.6-.5v-3.8h-.7c-.3,0-.3.3-.4.4v2.6c-.3.4-.7.6-1.1.6s-.2,0-.3,0c0,0-.2,0-.2-.1,0,0,0-.1-.1-.2,0-.1,0-.2,0-.4v-2.3c0-.1,0-.3-.4-.4h-.7v2.8c0,1.1.6,1.6,1.6,1.6s.9-.1,1.2-.4v.4h.5Z"/><path class="cls-2" d="M16,56.4h0c.5,0,.6-.3.6-.5v-2.3c0-.3,0-.6-.1-.8,0-.2-.2-.4-.4-.5-.2-.1-.4-.2-.6-.3-.2,0-.5,0-.8,0-1.3,0-2,.5-2.1,1.4h0c0,.1.7.1.7.1.1,0,.3,0,.4-.2,0-.2.1-.5,1-.5s.4,0,.6,0c.1,0,.2,0,.3.2,0,0,0,.2,0,.3,0,0,0,.2,0,.3h-.3c-1.9,0-2.8.5-2.8,1.5s0,.4.1.5c0,.2.2.3.4.4.2.1.3.2.5.3.2,0,.4,0,.6,0,.6,0,1-.1,1.5-.4v.3h.5ZM15.3,55.4c0,0-.2.1-.3.2-.1,0-.2,0-.3.1-.1,0-.2,0-.4,0-.3,0-.5,0-.6-.1-.1,0-.2-.2-.2-.4,0-.5.5-.7,1.6-.7h.4v.7c0,0-.1.1-.2.2Z"/><path class="cls-2" d="M12,52.1c-.1,0-.3,0-.4,0-.4,0-.7.1-1,.4v-.2c0,0,0-.1-.2-.2h-.8v4.3h.5,0c.4,0,.5-.2.6-.4v-2.5c.1-.2.3-.3.4-.4.2,0,.3-.1.5-.1s.3,0,.4,0h.2s0-1,0-1h-.1Z"/><path class="cls-2" d="M26.7,52.1c-.1,0-.3,0-.4,0-.4,0-.7.1-1,.4v-.2c0,0,0-.1-.2-.2h-.8v4.3h.5,0c.4,0,.5-.2.6-.4v-2.5c.1-.2.3-.3.4-.4.2,0,.3-.1.5-.1s.3,0,.4,0h.2s0-1,0-1h-.1Z"/><path class="cls-2" d="M45.9,52.1c-.1,0-.3,0-.4,0-.4,0-.7.1-1,.4v-.2c0,0,0-.1-.2-.2h-.8v4.3h.5,0c.4,0,.5-.2.6-.4v-2.5c.1-.2.3-.3.4-.4.2,0,.3-.1.5-.1s.3,0,.4,0h.2s0-1,0-1h-.1Z"/><path class="cls-2" d="M5.3,56.4h0c.5,0,.6-.3.6-.5v-2.3c0-1.1-.6-1.6-1.6-1.6s-.5,0-.8.2c-.2,0-.3.2-.4.3h0c0-.1,0-.1,0-.1,0,0,0-.2-.2-.2h-.8v4.3h.5,0c.7,0,.6-.6.6-.6h0s0-2.4,0-2.4c.4-.4.7-.6,1.1-.6s.2,0,.3,0c0,0,.2,0,.2.1,0,0,0,.1.1.2,0,.1,0,.2,0,.4v2.7h.5Z"/><path class="cls-2" d="M34.6,55.3h0s0,0,0,0c0,0-.1.1-.2.2,0,0-.2,0-.3.1-.3,0-.6,0-.8,0-.1,0-.3-.1-.4-.3,0-.1-.2-.3-.2-.4,0-.2,0-.4,0-.6s0-.5,0-.6c0-.2.1-.3.2-.4,0-.1.2-.2.4-.3.2,0,.6-.1.8,0,.1,0,.2,0,.3.1,0,0,.1.1.2.2,0,0,0,0,0,0h0s0,.3.5.3h.7,0c0-.4-.1-.6-.2-.8-.1-.2-.3-.3-.4-.5-.2-.1-.4-.2-.6-.3-.2,0-.5,0-.7,0s-.6,0-.9.2c-.3.1-.5.2-.7.4-.2.2-.4.4-.5.7-.1.3-.2.6-.2.9s0,.7.2.9c.1.3.3.5.5.7.2.2.4.3.7.4.3,0,.6.1.9.1s.5,0,.7,0c.2,0,.4-.1.6-.3.2-.1.3-.3.4-.4.1-.2.2-.4.2-.6h0c0-.1-.7-.1-.7-.1-.4,0-.5.3-.5.3Z"/><path class="cls-2" d="M20.9,54.6c0-.2-.2-.3-.3-.4-.1,0-.3-.2-.5-.2-.2,0-.4-.1-.7-.2-.3,0-.5-.1-.7-.2-.2,0-.3,0-.3-.1,0,0,0,0,0,0,0,0,0,0,0-.1s0-.1,0-.2c0,0,0,0,.2-.1,0,0,.2,0,.3,0,.1,0,.2,0,.3,0,.7,0,.8.3.8.4,0,0,0,.1.3.2h.8,0c0-1-.7-1.4-1.9-1.4s-.5,0-.7,0c-.2,0-.4.2-.6.3-.2.1-.3.3-.4.4,0,.2-.1.3-.1.5s0,.4.1.5c0,.1.2.3.3.4.1,0,.3.2.5.2.2,0,.4.1.7.2.3,0,.5.1.7.2.2,0,.3,0,.4.1,0,0,.1,0,.1.1,0,0,0,0,0,.2s0,.1,0,.2c0,0,0,.1-.2.2,0,0-.2,0-.3.1-.1,0-.3,0-.4,0-.8,0-.9-.3-1-.5,0-.2-.2-.2-.3-.2h-.8,0c0,1.1.8,1.6,2.1,1.6s.5,0,.8-.1c.2,0,.4-.2.6-.3.2-.1.3-.3.4-.4,0-.2.1-.4.1-.6s0-.4-.1-.5Z"/><path class="cls-2" d="M49.5,55.2s0,0,0,.1c0,0-.1.1-.2.2,0,0-.2,0-.3.1-.3,0-.6,0-.8,0-.1,0-.3-.1-.4-.2-.1-.1-.2-.2-.3-.4,0-.1,0-.3-.1-.4h2.7c.6,0,.7-.3.7-.5,0-.3,0-.5-.1-.8-.1-.3-.3-.5-.5-.7-.2-.2-.4-.3-.7-.4-.5-.2-1.3-.2-1.8,0-.3.1-.5.3-.7.4-.2.2-.3.4-.5.7-.1.3-.2.6-.2.9s0,.7.2.9c.1.3.3.5.5.7.2.2.5.3.7.4.3,0,.6.1.9.1s.5,0,.7,0c.2,0,.4-.2.6-.3.2-.1.3-.3.5-.4.1-.2.2-.4.2-.6v-.2s-.9,0-.9,0c0,0-.2.1-.2.2ZM47.4,53.4c0-.1.2-.2.2-.3,0,0,.2-.1.3-.2.1,0,.3,0,.4,0,.3,0,.5,0,.7.3.2.1.3.4.4.6h-2.2c0-.1,0-.2.1-.3Z"/><path class="cls-2" d="M81.5,52.6c-.2-.2-.4-.3-.7-.4-.5-.2-1.3-.2-1.8,0-.3.1-.5.2-.7.4-.2.2-.4.4-.5.7-.1.3-.2.6-.2.9s0,.7.2.9c.1.3.3.5.5.7.2.2.4.3.7.4.3,0,.6.1.9.1s.6,0,.9-.1c.3,0,.5-.2.7-.4.2-.2.4-.4.5-.7.1-.3.2-.6.2-.9s0-.7-.2-.9c-.1-.3-.3-.5-.5-.7ZM81,54.3c0,.2,0,.5,0,.6,0,.2-.1.3-.2.4,0,.1-.2.2-.4.3-.3.1-.7.1-.9,0-.1,0-.3-.1-.4-.3-.1-.1-.2-.3-.2-.4,0-.2,0-.4,0-.6s0-.5,0-.6c0-.2.1-.3.2-.4,0-.1.2-.2.4-.3.1,0,.3,0,.5,0s.3,0,.5,0c.1,0,.3.1.4.3,0,.1.2.3.2.4,0,.2,0,.4,0,.6Z"/><path class="cls-2" d="M88.3,52.6c-.2-.2-.4-.3-.7-.4-.5-.2-1.3-.2-1.8,0-.3.1-.5.2-.7.4-.2.2-.4.4-.5.7-.1.3-.2.6-.2.9s0,.7.2.9c.1.3.3.5.5.7.2.2.4.3.7.4.3,0,.6.1.9.1s.6,0,.9-.1c.3,0,.5-.2.7-.4.2-.2.3-.4.5-.7.1-.3.2-.6.2-.9s0-.7-.2-.9c-.1-.3-.3-.5-.5-.7ZM87.8,54.3c0,.2,0,.5,0,.6,0,.2-.1.3-.2.4,0,.1-.2.2-.4.3-.3.1-.7.1-.9,0-.1,0-.3-.1-.4-.3,0-.1-.2-.3-.2-.4,0-.2,0-.4,0-.6s0-.5,0-.6c0-.2.1-.3.2-.4,0-.1.2-.2.4-.3.1,0,.3,0,.5,0s.3,0,.5,0c.1,0,.3.1.4.3.1.1.2.3.2.4,0,.2,0,.4,0,.6Z"/><path class="cls-2" d="M56.1,56.4h0c.5,0,.6-.3.6-.5v-4.4h1.5,0c.5,0,.6-.3.6-.5v-.5h-5.2v.9h2v4.9h.5Z"/><path class="cls-2" d="M92.7,52.1c0,0-.1,0-.1,0h0c-.1,0-.3,0-.4,0-.5-.2-1.1-.2-1.5,0-.2.1-.5.3-.6.5-.2.2-.3.4-.4.7-.1.3-.2.6-.2.9s0,.6.1.9c0,.3.2.5.4.7.2.2.4.3.6.5.2.1.5.2.8.2s.8-.1,1.2-.4c0,.2,0,.4,0,.5,0,.2-.1.3-.2.4,0,0-.2.1-.3.2-.1,0-.3,0-.5,0-.6,0-.8-.2-.8-.4h0s0,0,0,0c0,0,0,0,0,0,0,0,0-.2-.4-.2h0s-.7,0-.7,0h0c0,.3,0,.5.1.7,0,.2.2.3.4.4.2.1.4.2.6.3.2,0,.5,0,.8,0,1.4,0,2.1-.7,2.1-2.1v-3.8h-.9ZM92.6,55.1c-.2.2-.3.4-.5.5-.2.1-.4.2-.6.2-.3,0-.5-.1-.7-.3-.2-.2-.3-.6-.3-1.1s0-.9.3-1.1c.2-.2.4-.3.7-.3s.7.1,1.1.4v1.8Z"/><path class="cls-2" d="M66.7,55.3h0s0,0,0,0c0,0-.1.1-.2.2,0,0-.2,0-.3.1-.3,0-.6,0-.8,0-.1,0-.3-.1-.4-.3-.1-.1-.2-.3-.2-.4,0-.2,0-.4,0-.6s0-.5,0-.6c0-.2.1-.3.2-.4,0-.1.2-.2.4-.3.2,0,.6-.1.8,0,.1,0,.2,0,.3.1,0,0,.1.1.2.2,0,0,0,0,0,0h0s0,.3.5.3h.7,0c0-.4-.1-.6-.2-.8-.1-.2-.3-.3-.4-.5-.2-.1-.4-.2-.6-.3-.2,0-.5,0-.7,0s-.6,0-.9.2c-.3.1-.5.2-.7.4-.2.2-.4.4-.5.7-.1.3-.2.6-.2.9s0,.7.2.9c.1.3.3.5.5.7.2.2.4.3.7.4.3,0,.6.1.9.1s.5,0,.7,0c.2,0,.4-.1.6-.3.2-.1.3-.3.4-.4.1-.2.2-.4.2-.6h0c0-.1-.7-.1-.7-.1-.4,0-.5.3-.5.3Z"/><path class="cls-2" d="M98.1,52.1c-.2,0-.4.1-.6.4l-.9,2.5-.9-2.5h0c-.1-.3-.4-.4-.6-.5h-.7l1.7,4.2c-.2.6-.5.8-.8.8s-.1,0-.2,0c0,0,0,0,0,0,0,0-.3,0-.3.2v.7h0c0,0,.2,0,.3,0,0,0,.2,0,.3,0,.2,0,.4,0,.6-.1.2,0,.3-.2.4-.4.1-.2.2-.3.3-.5,0-.2.2-.4.3-.7l1.8-4.2h-.8Z"/><path class="cls-2" d="M71.8,56.4h0c.4,0,.6-.2.6-.4v-2.4c0-1.1-.6-1.6-1.7-1.6s-.5,0-.8.2c-.2,0-.3.2-.5.3v-1.5h0s0-.3-.3-.4h-.7v5.8h.5,0c.5,0,.6-.3.6-.5v-2.5c.4-.4.7-.6,1.1-.6s.2,0,.3,0c0,0,.2,0,.2.1,0,0,0,.1.1.2,0,.1,0,.2,0,.4v2.7h.5Z"/><path class="cls-2" d="M83.2,56.4c.5,0,.6-.3.6-.4v-5.4h-1v5.8h.5,0Z"/><path class="cls-2" d="M76.4,56.4h0c.5,0,.6-.3.6-.5v-2.3c0-1.1-.6-1.6-1.7-1.6s-.5,0-.8.2c-.2,0-.3.2-.5.3h0c0-.1,0-.1,0-.1,0,0,0-.2-.2-.2h-.8v4.3h.5,0c.7,0,.6-.6.6-.6h0s0-2.4,0-2.4c.4-.4.7-.6,1.1-.6s.2,0,.3,0c0,0,.2,0,.2.1,0,0,0,.1.1.2,0,.1,0,.2,0,.4v2.7h.5Z"/><path class="cls-2" d="M61.9,55.2s0,0,0,.1c0,0-.1.1-.2.2,0,0-.2,0-.3.1-.3,0-.6,0-.8,0-.1,0-.3-.1-.4-.2-.1-.1-.2-.2-.3-.4,0-.1,0-.3-.1-.4h2.7c.6,0,.7-.3.7-.5,0-.3,0-.5-.1-.8-.1-.3-.3-.5-.5-.7-.2-.2-.4-.3-.7-.4-.5-.2-1.3-.2-1.8,0-.3.1-.5.3-.7.4-.2.2-.4.4-.5.7-.1.3-.2.6-.2.9s0,.7.2.9c.1.3.3.5.5.7.2.2.5.3.7.4.3,0,.6.1.9.1s.5,0,.7,0c.2,0,.4-.2.6-.3.2-.1.3-.3.5-.4.1-.2.2-.4.2-.6v-.2s-.9,0-.9,0c0,0-.2.1-.2.2ZM59.8,53.4c0-.1.1-.2.2-.3,0,0,.2-.1.3-.2.1,0,.3,0,.4,0,.3,0,.5,0,.7.3.2.1.3.4.4.6h-2.2c0-.1,0-.2.1-.3Z"/><path class="cls-2" d="M53,63.7c-.1,0-.3,0-.3,0,0,0,0,0,0,0,0,0,0,0,0-.1,0,0,0-.2,0-.3v-2.2h.3c.3,0,.4-.2.4-.4v-.4h-.7v-1h-1.1v1h-.6v.8h.6v2.2c0,.2,0,.4,0,.6,0,.2,0,.3.2.4,0,.1.2.2.4.3.2,0,.4,0,.6,0s.2,0,.3,0c.1,0,.2,0,.3,0h0v-.8h-.1c0,0-.1,0-.2,0Z"/><path class="cls-2" d="M1.5,63.9h0c0,0,0-.1,0-.1h0s.4-1.1.4-1.1h2.4l.5,1.2c0,.2.3.4.8.5h.7l-2.6-5.8h0c0,0-1.1,0-1.1,0L.1,64.4h.6c.5,0,.7-.3.8-.5ZM3.1,59.8l.9,2.1h-1.7l.9-2.1Z"/><path class="cls-2" d="M10,64.4h0c.7,0,.6-.6.6-.6h0s0-5.3,0-5.3h-1.1v1.7c-.1,0-.3-.1-.4-.2-.5-.2-1-.2-1.5,0-.2.1-.5.3-.6.5-.2.2-.3.4-.4.7-.1.3-.2.6-.2.9s0,.6.1.9c0,.3.2.5.4.7.2.2.4.3.6.5.2.1.5.2.8.2s.8-.1,1.2-.4v.3h.5ZM9,63.5c-.2.1-.4.2-.6.2-.3,0-.5-.1-.7-.3-.2-.2-.3-.6-.3-1.1s0-.9.3-1.1c.2-.2.4-.3.7-.3s.7.1,1.1.4v1.8c-.2.2-.3.4-.5.5Z"/><path class="cls-2" d="M19.2,64.4h0c.5,0,.6-.3.6-.5v-2.3c0-.3,0-.6-.1-.8,0-.2-.2-.4-.4-.5-.2-.1-.4-.2-.6-.3-.2,0-.5,0-.8,0-1.3,0-2,.5-2.1,1.4h0c0,.1.7.1.7.1.1,0,.3,0,.4-.2,0-.2.1-.5,1-.5s.4,0,.6,0c.1,0,.2,0,.3.2,0,0,0,.2,0,.3,0,0,0,.2,0,.3h-.3c-1.9,0-2.8.5-2.8,1.5s0,.4.1.5c0,.2.2.3.4.4.2.1.3.2.5.3.2,0,.4,0,.6,0,.6,0,1-.1,1.4-.4v.3h.5ZM18.5,63.4c0,0-.2.1-.3.2-.1,0-.2,0-.3.1-.1,0-.2,0-.4,0-.3,0-.5,0-.6-.1-.1,0-.2-.2-.2-.4,0-.5.5-.7,1.6-.7h.4v.7c0,0-.1.1-.2.2Z"/><path class="cls-2" d="M27.9,63.3h0s0,0,0,0c0,0-.1.1-.2.2,0,0-.2,0-.3.1-.3,0-.6,0-.8,0-.1,0-.3-.1-.4-.3,0-.1-.2-.3-.2-.4,0-.2,0-.4,0-.6s0-.5,0-.6c0-.2.1-.3.2-.4,0-.1.2-.2.4-.3.2,0,.6-.1.8,0,.1,0,.2,0,.3.1,0,0,.1.1.2.2,0,0,0,0,0,0h0s0,.3.5.3h.7,0c0-.4-.1-.6-.2-.8-.1-.2-.3-.3-.4-.4-.2-.1-.4-.2-.6-.3-.2,0-.5,0-.7,0s-.6,0-.9.1c-.3.1-.5.2-.7.4-.2.2-.4.4-.5.7-.1.3-.2.6-.2.9s0,.7.2.9c.1.3.3.5.5.7.2.2.4.3.7.4.3,0,.6.1.9.1s.5,0,.7,0c.2,0,.4-.1.6-.3.2-.1.3-.3.4-.4.1-.2.2-.4.2-.6h0c0-.1-.7-.1-.7-.1-.4,0-.5.3-.5.3Z"/><path class="cls-2" d="M23.7,64.4h0c.5,0,.6-.3.6-.5v-2.3c0-1.1-.6-1.6-1.7-1.6s-.5,0-.8.2c-.2,0-.3.2-.5.3h0c0-.1,0-.1,0-.1,0,0,0-.2-.2-.2h-.8v4.3h.5,0c.7,0,.6-.6.6-.6h0s0-2.4,0-2.4c.4-.4.7-.6,1.1-.6s.2,0,.3,0c0,0,.2,0,.2.1,0,0,0,.1.1.2,0,.1,0,.2,0,.4v2.7h.5Z"/><path class="cls-2" d="M40.4,64.4h0c.5,0,.6-.3.6-.5v-2.3c0-1.1-.5-1.6-1.5-1.6s-.2,0-.3,0c-.1,0-.2,0-.3.1-.1,0-.2.1-.4.2,0,0-.2.2-.3.3-.2-.4-.7-.6-1.3-.6s-.8.1-1.1.4v-.2c0,0,0-.1-.2-.2h-.8v4.3h.5,0c.5,0,.6-.3.6-.5v-2.5c.3-.4.7-.6,1-.6s.2,0,.3,0c0,0,.1,0,.2.1,0,0,0,.1.1.2,0,.1,0,.2,0,.4v2.7h.5,0c.4,0,.5-.2.6-.4v-2.6c.3-.4.7-.6,1-.6s.2,0,.3,0c0,0,.1,0,.2.1,0,0,0,.1,0,.2,0,.1,0,.2,0,.4v2.7h.5Z"/><path class="cls-2" d="M49.9,64.4h0c.5,0,.6-.3.6-.5v-2.3c0-1.1-.6-1.6-1.7-1.6s-.5,0-.8.2c-.2,0-.3.2-.4.3h0c0-.1,0-.1,0-.1,0,0,0-.2-.2-.2h-.8v4.3h.5,0c.7,0,.6-.6.6-.6h0s0-2.4,0-2.4c.4-.4.7-.6,1.1-.6s.2,0,.3,0c0,0,.1,0,.2.1,0,0,0,.1.1.2,0,.1,0,.2,0,.4v2.7h.5Z"/><path class="cls-2" d="M14.7,60.1c-.3,0-.4.2-.5.4h0c0,.1,0,.1,0,.1l-.9,2.4-1-2.6c0-.1-.2-.3-.5-.3h-.8l1.8,4.3h.9l1.8-4.3h-.8Z"/><path class="cls-2" d="M32.8,63.2s0,0,0,.1c0,0-.1.1-.2.2,0,0-.2,0-.3.1-.3,0-.6,0-.8,0-.1,0-.3-.1-.4-.2-.1-.1-.2-.2-.3-.4,0-.1,0-.3-.1-.4h2.7c.6,0,.7-.3.7-.5,0-.3,0-.5-.1-.8-.1-.3-.3-.5-.5-.7-.2-.2-.4-.3-.7-.4-.5-.2-1.3-.2-1.8,0-.3.1-.5.3-.7.4-.2.2-.4.4-.5.7-.1.3-.2.6-.2.9s0,.7.2.9c.1.3.3.5.5.7.2.2.5.3.7.4.3,0,.6.1.9.1s.5,0,.7,0c.2,0,.4-.2.6-.3.2-.1.3-.3.5-.4.1-.2.2-.4.2-.6h0c0-.1-1-.1-1-.1,0,0-.2,0-.2.2ZM30.8,61.4c0-.1.2-.2.2-.3,0,0,.2-.1.3-.2.1,0,.3,0,.4,0,.3,0,.5,0,.7.3.2.1.3.4.4.6h-2.2c0-.1,0-.2.1-.3Z"/><path class="cls-2" d="M44.7,63.2s0,0,0,.1c0,0-.1.1-.2.2,0,0-.2,0-.3.1-.3,0-.6,0-.8,0-.1,0-.3-.1-.4-.2-.1-.1-.2-.2-.3-.4,0-.1,0-.3-.1-.4h2.7c.6,0,.7-.3.7-.5,0-.3,0-.5-.1-.8-.1-.3-.3-.5-.5-.7-.2-.2-.4-.3-.7-.4-.5-.2-1.3-.2-1.8,0-.3.1-.5.3-.7.4-.2.2-.4.4-.5.7-.1.3-.2.6-.2.9s0,.7.2.9c.1.3.3.5.5.7.2.2.5.3.7.4.3,0,.6.1.9.1s.5,0,.7,0c.2,0,.4-.2.6-.3.2-.1.3-.3.5-.4.1-.2.2-.4.2-.6h0c0-.1-1-.1-1-.1,0,0-.2,0-.2.2ZM42.7,61.4c0-.1.1-.2.2-.3,0,0,.2-.1.3-.2.1,0,.3,0,.4,0,.3,0,.5,0,.7.3.2.1.3.4.4.6h-2.2c0-.1,0-.2.1-.3Z"/></g></svg>