<?xml version="1.0" encoding="UTF-8"?><svg id="Layer_1" xmlns="http://www.w3.org/2000/svg" viewBox="0 0 195.1 64.6"><defs><style>.cls-1{fill:#ed1b23;}.cls-2{fill:#454a51;}</style></defs><path class="cls-1" d="M155.4,15.8c0,.6,0,1.1.3,1.7,1,2.4,3.4,3.9,6.6,2.6.7-.3,21.5-8.7,21.5-8.7,0,0-8.2,20.7-8.5,21.5-1.2,3,.2,5.7,2.7,6.6.5.2,1.1.3,1.7.3,2,0,3.7-1.2,4.6-3.5.1-.4,10.4-28.4,10.6-29.1.1-.4.4-1.3.4-2,0-1.4-.5-2.7-1.5-3.7C192.7.5,191.4,0,190,0c-.7,0-1.2.1-2,.4-.5.2-26.9,10-29.1,10.8-2.3.8-3.5,2.6-3.5,4.6"/><path class="cls-2" d="M105.9,31.7v-.6h-16v4.1h9.3c-2.4,7.7-11.1,12.2-11.1,12.2l2.3,3.2s15.5-6.4,15.5-18.9Z"/><path class="cls-2" d="M100.9,58.8v-7.9h-5.7v9c0,2.8,2.2,4.8,5.3,4.8h17.6v-4.1h-15.2c-1.4,0-2-.5-2-1.8Z"/><polygon class="cls-2" points="105.3 38.6 105.3 42.7 112 42.7 112 52.5 117.7 52.5 117.7 30.6 112 30.6 112 38.6 105.3 38.6"/><polygon class="cls-2" points="154.2 47.1 159.8 47.1 159.8 30.5 154.2 30.5 154.2 35.6 148.2 35.6 148.2 39.7 154.2 39.7 154.2 47.1"/><path class="cls-2" d="M27,50.6H5.4v9.3c0,2.8,2.2,4.8,5.3,4.8h17.6v-12.8c0-.7-.6-1.3-1.3-1.3ZM22.6,60.6h-9.5c-1.4,0-2-.5-2-1.7v-4.2h11.5v5.9Z"/><path class="cls-2" d="M28.6,31.1v-.2H5.1v4.1h17.6c0,.3,0,.6,0,.9,0,3.8-.2,6.3-.3,7.3H0v4.1h34.5v-4.1h-7.1c.3-1.3,1.2-5.2,1.2-12.2Z"/><path class="cls-2" d="M63.9,52.6c4.7-1,8.2-4.6,8.2-8.7s-1-4.3-2.7-5.9h6v-4.1h-11.5v-3.9h-5.7v3.9h-11.5v4.1h6c-1.7,1.6-2.7,3.6-2.7,5.9,0,4.2,3.5,7.7,8.2,8.7v4.1h-14.4v4.1h34.5v-4.1h-14.4v-4.1ZM55.8,43.7c0-2.8,2.3-5.1,5.2-5.1s5.2,2.3,5.2,5.1-2.3,5.1-5.2,5.1-5.2-2.3-5.2-5.1Z"/><path class="cls-2" d="M143.3,46.7h5.5c-.2-1.3-2.2-12.1-7.5-15.8h-6.3l-4.9,15.9h5.7l3.2-11.5c2.7,3.2,4.1,10.3,4.2,11.3Z"/><path class="cls-2" d="M144.4,60.7c-1.4,0-1.7-.4-1.7-1.6v-.5h17.1v-8.6c0-.7-.5-1.3-1.3-1.3h-21.3v3.9h17.2v2.1h-17.1v5.1c0,2.9,2.1,4.8,5.3,4.8h17.6v-3.9h-15.8Z"/></svg>